<svg width="154" height="48" viewBox="0 0 154 48" fill="none" xmlns="http://www.w3.org/2000/svg">
<g clip-path="url(#clip0_14_116)">
<mask id="mask0_14_116" style="mask-type:luminance" maskUnits="userSpaceOnUse" x="0" y="0" width="154" height="48">
<path d="M154 0H0V48H154V0Z" fill="white"/>
</mask>
<g mask="url(#mask0_14_116)">
<mask id="mask1_14_116" style="mask-type:luminance" maskUnits="userSpaceOnUse" x="13" y="6" width="16" height="28">
<path d="M28.9662 6H13V33.8156H28.9662V6Z" fill="white"/>
</mask>
<g mask="url(#mask1_14_116)">
<mask id="mask2_14_116" style="mask-type:luminance" maskUnits="userSpaceOnUse" x="13" y="15" width="16" height="19">
<path d="M22.5129 15.5686H19.4532C15.8892 15.5686 13 18.4578 13 22.0218V27.3624C13 30.9264 15.8892 33.8156 19.4532 33.8156H22.5129C26.077 33.8156 28.9662 30.9264 28.9662 27.3624V22.0218C28.9662 18.4578 26.077 15.5686 22.5129 15.5686Z" fill="white"/>
</mask>
<g mask="url(#mask2_14_116)">
<mask id="mask3_14_116" style="mask-type:alpha" maskUnits="userSpaceOnUse" x="12" y="15" width="18" height="19">
<path d="M12.9443 19.6787C12.9443 18.279 13.8162 17.0245 15.159 16.6294C16.6765 16.1829 18.6951 15.683 20.2876 15.6242C22.3202 15.5491 24.9608 16.1444 26.8151 16.6559C28.1823 17.033 29.0773 18.2984 29.0773 19.7165V30.4678C29.0773 32.2933 27.6108 33.7802 25.7855 33.8054L16.3282 33.9358C14.4669 33.9615 12.9443 32.4598 12.9443 30.5982V19.6787Z" fill="#FFC364"/>
</mask>
<g mask="url(#mask3_14_116)">
<path d="M29.5782 14.6785H12.3325V34.2607H29.5782V14.6785Z" fill="#FFB43B"/>
<path d="M12.9443 17.7938C12.9443 17.7938 17.8747 21.8664 20.8439 23.0232C25.1275 24.6921 29.0217 25.0259 29.0217 25.0259" stroke="#514235" stroke-opacity="0.28" stroke-width="0.333788"/>
<path d="M14.4468 15.0123C14.4468 15.0123 19.3773 19.0848 22.3465 20.2416C26.6301 21.9105 30.5242 22.2443 30.5242 22.2443" stroke="#514235" stroke-opacity="0.28" stroke-width="0.333788"/>
<path d="M16.6719 12.787C16.6719 12.787 21.6024 16.8595 24.5715 18.0163C28.8551 19.6853 32.7493 20.0191 32.7493 20.0191" stroke="#514235" stroke-opacity="0.28" stroke-width="0.333788"/>
<path d="M12.8887 21.1317C12.8887 21.1317 16.5953 24.3698 19.5645 25.5266C23.8481 27.1955 29.0218 27.9743 29.0218 27.9743" stroke="#514235" stroke-opacity="0.28" stroke-width="0.333788"/>
<path d="M12.9443 24.5808C12.9443 24.5808 16.7621 27.3182 19.7313 28.475C24.0149 30.144 28.9661 30.9784 28.9661 30.9784" stroke="#514235" stroke-opacity="0.28" stroke-width="0.333788"/>
<path d="M12.0547 27.3624C12.0547 27.3624 16.2619 30.1554 19.2311 31.3122C23.5147 32.9812 28.9666 33.9825 28.9666 33.9825" stroke="#514235" stroke-opacity="0.28" stroke-width="0.333788"/>
<path d="M10.2188 29.2539C10.2188 29.2539 14.426 32.0469 17.3952 33.2037C21.6788 34.8726 27.1306 35.874 27.1306 35.874" stroke="#514235" stroke-opacity="0.28" stroke-width="0.333788"/>
<path d="M4.82031 30.4417C4.82031 30.4417 14.3887 27.6008 18.3591 25.066C24.0871 21.4092 29.9119 14.5672 29.9119 14.5672" stroke="#514235" stroke-opacity="0.28" stroke-width="0.333788"/>
<path d="M2.17334 27.0184C2.17334 27.0184 11.7417 24.1775 15.7121 21.6427C21.4401 17.9859 25.0109 13.9089 25.0109 13.9089" stroke="#514235" stroke-opacity="0.28" stroke-width="0.333788"/>
<path d="M0.872559 23.1523C0.872559 23.1523 10.441 20.3114 14.4113 17.7767C20.1394 14.1198 23.7101 10.0427 23.7101 10.0427" stroke="#514235" stroke-opacity="0.28" stroke-width="0.333788"/>
<path d="M9.39209 32.6257C9.39209 32.6257 16.8294 30.6021 20.7997 28.0674C26.5278 24.4105 31.7356 19.2072 31.7356 19.2072" stroke="#514235" stroke-opacity="0.28" stroke-width="0.333788"/>
<path d="M14.2061 34.7578C14.2061 34.7578 21.0398 32.2933 25.0102 29.7585C30.7382 26.1017 35.8453 21.1789 35.8453 21.1789" stroke="#514235" stroke-opacity="0.28" stroke-width="0.333788"/>
<path d="M17.3423 37.5071C17.3423 37.5071 24.5639 34.6491 28.5342 32.1143C34.2623 28.4574 39.9999 23.0892 39.9999 23.0892" stroke="#514235" stroke-opacity="0.28" stroke-width="0.333788"/>
<path d="M18.4922 40.7319C18.4922 40.7319 25.7137 37.874 29.6841 35.3392C35.4121 31.6824 41.1497 26.3141 41.1497 26.3141" stroke="#514235" stroke-opacity="0.28" stroke-width="0.333788"/>
<path d="M17.4508 23.0232C18.2496 23.0232 18.8972 22.3756 18.8972 21.5767C18.8972 20.7779 18.2496 20.1303 17.4508 20.1303C16.652 20.1303 16.0044 20.7779 16.0044 21.5767C16.0044 22.3756 16.652 23.0232 17.4508 23.0232Z" fill="white"/>
<path d="M24.5714 23.0232C25.3702 23.0232 26.0178 22.3756 26.0178 21.5767C26.0178 20.7779 25.3702 20.1303 24.5714 20.1303C23.7726 20.1303 23.125 20.7779 23.125 21.5767C23.125 22.3756 23.7726 23.0232 24.5714 23.0232Z" fill="white"/>
<path d="M24.6827 22.2443C25.0514 22.2443 25.3502 21.9454 25.3502 21.5767C25.3502 21.2081 25.0514 20.9092 24.6827 20.9092C24.314 20.9092 24.0151 21.2081 24.0151 21.5767C24.0151 21.9454 24.314 22.2443 24.6827 22.2443Z" fill="black"/>
<path d="M17.3394 22.2443C17.7081 22.2443 18.007 21.9454 18.007 21.5767C18.007 21.2081 17.7081 20.9092 17.3394 20.9092C16.9707 20.9092 16.6719 21.2081 16.6719 21.5767C16.6719 21.9454 16.9707 22.2443 17.3394 22.2443Z" fill="black"/>
<path d="M19.8984 23.9133C19.8984 23.9133 19.8901 24.8034 20.9554 24.8034C22.0206 24.8034 22.068 23.9133 22.068 23.9133" stroke="black" stroke-width="0.778838" stroke-linecap="round"/>
</g>
</g>
<path d="M14.5576 9.39351L18.0623 11.8969L17.6173 6.83447L19.62 12.2863L21.4002 6L21.9565 11.8969L24.9606 7.7802L24.0149 12.787L27.8534 9.61603L23.1804 16.1249H19.0081L14.5576 9.39351Z" fill="#286F28"/>
<path d="M14.5298 11.5387L18.0492 13.2443L17.6023 9.79516L19.6133 13.5096L21.401 9.22662L21.9596 13.2443L24.9763 10.4395L24.0267 13.8507L27.8813 11.6903L23.1887 16.1249H18.9988L14.5298 11.5387Z" fill="#50AF50"/>
</g>
<path d="M45.089 17.0829C47.14 17.0829 48.6336 17.5287 49.5699 18.4205C50.5211 19.2973 50.9967 20.5086 50.9967 22.0542C50.9967 22.7527 50.8926 23.4215 50.6846 24.0606C50.4765 24.6848 50.1272 25.2495 49.6368 25.7548C49.1612 26.2453 48.5296 26.6317 47.7419 26.914C46.9542 27.1964 45.9808 27.3376 44.8215 27.3376H43.3725V33H40.0063V17.0829H45.089ZM44.9107 19.8472H43.3725V24.5733H44.4871C45.1262 24.5733 45.6761 24.4915 46.1368 24.3281C46.5975 24.1646 46.9542 23.9045 47.2069 23.5478C47.4595 23.1911 47.5858 22.7304 47.5858 22.1657C47.5858 21.378 47.3703 20.7984 46.9393 20.4268C46.5084 20.0404 45.8321 19.8472 44.9107 19.8472ZM57.0588 20.8281V33H53.7371V20.8281H57.0588ZM55.4091 16.0574C55.8995 16.0574 56.3231 16.1763 56.6798 16.4141C57.0365 16.637 57.2148 17.0606 57.2148 17.6848C57.2148 18.2941 57.0365 18.7177 56.6798 18.9555C56.3231 19.1933 55.8995 19.3122 55.4091 19.3122C54.9038 19.3122 54.4728 19.1933 54.1161 18.9555C53.7743 18.7177 53.6034 18.2941 53.6034 17.6848C53.6034 17.0606 53.7743 16.637 54.1161 16.4141C54.4728 16.1763 54.9038 16.0574 55.4091 16.0574ZM67.4403 20.6052C68.7481 20.6052 69.7959 20.9618 70.5836 21.6752C71.3712 22.3737 71.7651 23.5032 71.7651 25.0637V33H68.4436V25.8886C68.4436 25.0117 68.2874 24.3578 67.9753 23.9268C67.6632 23.4809 67.1653 23.258 66.4817 23.258C65.4711 23.258 64.78 23.6073 64.4084 24.3058C64.0369 24.9894 63.8511 25.9777 63.8511 27.2707V33H60.5295V20.8281H63.0709L63.5167 22.3886H63.6951C63.9626 21.9725 64.2895 21.6381 64.676 21.3854C65.0624 21.1179 65.4934 20.9247 65.9689 20.8058C66.4445 20.672 66.935 20.6052 67.4403 20.6052ZM80.1969 20.6052C81.3264 20.6052 82.2924 20.8207 83.0949 21.2516C83.9123 21.6826 84.544 22.3068 84.9898 23.1243C85.4357 23.9417 85.6586 24.9448 85.6586 26.1338V27.7389H77.8115C77.8412 28.6752 78.1162 29.4108 78.6364 29.9459C79.1714 30.4809 79.907 30.7484 80.8433 30.7484C81.631 30.7484 82.3444 30.6741 82.9835 30.5255C83.6225 30.362 84.2839 30.1168 84.9675 29.7898V32.3535C84.3731 32.6507 83.7414 32.8662 83.0726 33C82.4187 33.1486 81.6236 33.2229 80.6873 33.2229C79.4686 33.2229 78.3911 33 77.4548 32.5541C76.5186 32.0934 75.7829 31.4023 75.2478 30.4809C74.7128 29.5595 74.4453 28.4002 74.4453 27.0032C74.4453 25.5765 74.6831 24.3949 75.1587 23.4586C75.6491 22.5075 76.3253 21.7941 77.1873 21.3185C78.0493 20.8429 79.0525 20.6052 80.1969 20.6052ZM80.2191 22.9682C79.5801 22.9682 79.0451 23.1763 78.6141 23.5924C78.1979 24.0085 77.9527 24.655 77.8784 25.5319H82.5376C82.5376 25.0414 82.4484 24.603 82.2701 24.2166C82.1066 23.8302 81.854 23.5255 81.5121 23.3026C81.1703 23.0797 80.7393 22.9682 80.2191 22.9682ZM93.3456 20.5829C94.9805 20.5829 96.229 20.9395 97.091 21.6529C97.9678 22.3514 98.4061 23.4289 98.4061 24.8854V33H96.0877L95.4412 31.3503H95.352C95.0102 31.7813 94.6535 32.138 94.2819 32.4204C93.9253 32.7028 93.5091 32.9034 93.0335 33.0223C92.5728 33.1561 92.0006 33.2229 91.317 33.2229C90.6036 33.2229 89.9571 33.0892 89.3775 32.8217C88.8128 32.5393 88.3669 32.1157 88.0399 31.551C87.713 30.9713 87.5495 30.2431 87.5495 29.3663C87.5495 28.0733 88.0028 27.1221 88.9094 26.5128C89.8159 25.8886 91.1758 25.5467 92.989 25.4873L95.1068 25.4204V24.8854C95.1068 24.2463 94.9359 23.7782 94.5941 23.4809C94.2671 23.1837 93.8064 23.0351 93.2119 23.0351C92.6174 23.0351 92.0378 23.1243 91.473 23.3026C90.9083 23.4661 90.3435 23.6741 89.7788 23.9268L88.6864 21.6752C89.3404 21.3334 90.0612 21.0659 90.8488 20.8727C91.6514 20.6795 92.4837 20.5829 93.3456 20.5829ZM93.8139 27.4045C92.7438 27.4342 92.0006 27.6274 91.5845 27.9841C91.1684 28.3408 90.9604 28.8089 90.9604 29.3886C90.9604 29.8939 91.109 30.258 91.4062 30.4809C91.7034 30.689 92.0898 30.793 92.5654 30.793C93.2788 30.793 93.8807 30.5849 94.3711 30.1688C94.8616 29.7378 95.1068 29.1359 95.1068 28.3631V27.3599L93.8139 27.4045ZM108.583 20.6052C109.951 20.6052 111.058 21.1402 111.905 22.2102C112.752 23.2654 113.176 24.8259 113.176 26.8917C113.176 28.2739 112.975 29.4406 112.574 30.3917C112.172 31.328 111.623 32.034 110.924 32.5096C110.226 32.9851 109.416 33.2229 108.494 33.2229C107.914 33.2229 107.409 33.1486 106.978 33C106.562 32.8514 106.205 32.6582 105.908 32.4204C105.611 32.1826 105.351 31.9299 105.128 31.6624H104.95C105.009 31.9448 105.054 32.242 105.083 32.5541C105.113 32.8514 105.128 33.1486 105.128 33.4459V38.3503H101.806V20.8281H104.504L104.972 22.4109H105.128C105.351 22.0839 105.618 21.7867 105.93 21.5192C106.243 21.2368 106.614 21.0139 107.045 20.8504C107.491 20.6869 108.004 20.6052 108.583 20.6052ZM107.513 23.258C106.934 23.258 106.473 23.3769 106.131 23.6147C105.789 23.8525 105.537 24.2166 105.373 24.707C105.224 25.1826 105.143 25.7845 105.128 26.5128V26.8695C105.128 27.6571 105.202 28.3259 105.351 28.8758C105.499 29.4108 105.752 29.8195 106.109 30.1019C106.465 30.3843 106.948 30.5255 107.558 30.5255C108.063 30.5255 108.479 30.3843 108.806 30.1019C109.133 29.8195 109.378 29.4034 109.542 28.8535C109.705 28.3036 109.787 27.6348 109.787 26.8472C109.787 25.6582 109.601 24.7665 109.23 24.172C108.873 23.5627 108.301 23.258 107.513 23.258ZM122.691 20.6052C124.058 20.6052 125.165 21.1402 126.012 22.2102C126.859 23.2654 127.283 24.8259 127.283 26.8917C127.283 28.2739 127.082 29.4406 126.681 30.3917C126.28 31.328 125.73 32.034 125.031 32.5096C124.333 32.9851 123.523 33.2229 122.601 33.2229C122.022 33.2229 121.516 33.1486 121.085 33C120.669 32.8514 120.313 32.6582 120.015 32.4204C119.718 32.1826 119.458 31.9299 119.235 31.6624H119.057C119.116 31.9448 119.161 32.242 119.191 32.5541C119.22 32.8514 119.235 33.1486 119.235 33.4459V38.3503H115.913V20.8281H118.611L119.079 22.4109H119.235C119.458 22.0839 119.726 21.7867 120.038 21.5192C120.35 21.2368 120.721 21.0139 121.152 20.8504C121.598 20.6869 122.111 20.6052 122.691 20.6052ZM121.62 23.258C121.041 23.258 120.58 23.3769 120.238 23.6147C119.896 23.8525 119.644 24.2166 119.48 24.707C119.332 25.1826 119.25 25.7845 119.235 26.5128V26.8695C119.235 27.6571 119.309 28.3259 119.458 28.8758C119.607 29.4108 119.859 29.8195 120.216 30.1019C120.573 30.3843 121.056 30.5255 121.665 30.5255C122.17 30.5255 122.586 30.3843 122.913 30.1019C123.24 29.8195 123.486 29.4034 123.649 28.8535C123.813 28.3036 123.894 27.6348 123.894 26.8472C123.894 25.6582 123.709 24.7665 123.337 24.172C122.98 23.5627 122.408 23.258 121.62 23.258ZM133.342 33H130.021V16.0574H133.342V33ZM141.829 20.6052C142.958 20.6052 143.924 20.8207 144.727 21.2516C145.544 21.6826 146.176 22.3068 146.622 23.1243C147.068 23.9417 147.291 24.9448 147.291 26.1338V27.7389H139.444C139.473 28.6752 139.748 29.4108 140.268 29.9459C140.803 30.4809 141.539 30.7484 142.475 30.7484C143.263 30.7484 143.976 30.6741 144.616 30.5255C145.255 30.362 145.916 30.1168 146.6 29.7898V32.3535C146.005 32.6507 145.374 32.8662 144.705 33C144.051 33.1486 143.256 33.2229 142.319 33.2229C141.101 33.2229 140.023 33 139.087 32.5541C138.151 32.0934 137.415 31.4023 136.88 30.4809C136.345 29.5595 136.077 28.4002 136.077 27.0032C136.077 25.5765 136.315 24.3949 136.791 23.4586C137.281 22.5075 137.957 21.7941 138.819 21.3185C139.681 20.8429 140.685 20.6052 141.829 20.6052ZM141.851 22.9682C141.212 22.9682 140.677 23.1763 140.246 23.5924C139.83 24.0085 139.585 24.655 139.51 25.5319H144.17C144.17 25.0414 144.081 24.603 143.902 24.2166C143.739 23.8302 143.486 23.5255 143.144 23.3026C142.802 23.0797 142.371 22.9682 141.851 22.9682Z" fill="white"/>
</g>
</g>
<defs>
<clipPath id="clip0_14_116">
<rect width="154" height="48" fill="white"/>
</clipPath>
</defs>
</svg>
